<mxfile host="Electron" agent="Mozilla/5.0 (Windows NT 10.0; Win64; x64) AppleWebKit/537.36 (KHTML, like Gecko) draw.io/24.7.17 Chrome/128.0.6613.36 Electron/32.0.1 Safari/537.36" version="24.7.17">
  <diagram name="PÃ¡gina-1" id="zhXQWZBzuIXgnLFgOxkx">
    <mxGraphModel dx="880" dy="532" grid="1" gridSize="10" guides="1" tooltips="1" connect="1" arrows="1" fold="1" page="1" pageScale="1" pageWidth="827" pageHeight="1169" math="0" shadow="0">
      <root>
        <mxCell id="0" />
        <mxCell id="1" parent="0" />
        <mxCell id="D-9IsX12bkMzrbKOuoSj-1" value="" style="ellipse;whiteSpace=wrap;html=1;aspect=fixed;" vertex="1" parent="1">
          <mxGeometry x="200" y="40" width="50" height="50" as="geometry" />
        </mxCell>
        <mxCell id="D-9IsX12bkMzrbKOuoSj-2" value="" style="endArrow=none;html=1;rounded=0;" edge="1" parent="1">
          <mxGeometry width="50" height="50" relative="1" as="geometry">
            <mxPoint x="224.76000000000002" y="140" as="sourcePoint" />
            <mxPoint x="224.76000000000002" y="90" as="targetPoint" />
          </mxGeometry>
        </mxCell>
        <mxCell id="D-9IsX12bkMzrbKOuoSj-3" value="&lt;h5 style=&quot;font-size: 10px;&quot;&gt;&lt;span style=&quot;font-weight: normal;&quot;&gt;&lt;font face=&quot;Helvetica&quot; style=&quot;font-size: 10px;&quot;&gt;Se selecciona la opcion&lt;br&gt;&lt;/font&gt;&lt;font face=&quot;XO-h5PM8wYv88Yh-aEj5&quot; style=&quot;font-size: 10px;&quot;&gt;&quot;Ir a destino&quot;&lt;br&gt;&lt;/font&gt;&lt;font face=&quot;XO-h5PM8wYv88Yh-aEj5&quot; style=&quot;font-size: 10px;&quot;&gt;//Visualizar Pantalla Inicial de Busqueda,&amp;nbsp;&lt;br&gt;&lt;/font&gt;&lt;font face=&quot;XO-h5PM8wYv88Yh-aEj5&quot; style=&quot;font-size: 10px;&quot;&gt;Habilitar Opciones&lt;/font&gt;&lt;/span&gt;&lt;/h5&gt;" style="text;html=1;align=left;verticalAlign=middle;resizable=0;points=[];autosize=1;strokeColor=none;fillColor=none;" vertex="1" parent="1">
          <mxGeometry x="260" y="30" width="190" height="90" as="geometry" />
        </mxCell>
        <mxCell id="D-9IsX12bkMzrbKOuoSj-6" value="" style="edgeStyle=orthogonalEdgeStyle;rounded=0;orthogonalLoop=1;jettySize=auto;html=1;" edge="1" parent="1" source="D-9IsX12bkMzrbKOuoSj-4" target="D-9IsX12bkMzrbKOuoSj-5">
          <mxGeometry relative="1" as="geometry" />
        </mxCell>
        <mxCell id="D-9IsX12bkMzrbKOuoSj-9" value="" style="edgeStyle=orthogonalEdgeStyle;rounded=0;orthogonalLoop=1;jettySize=auto;html=1;" edge="1" parent="1" source="D-9IsX12bkMzrbKOuoSj-4" target="D-9IsX12bkMzrbKOuoSj-8">
          <mxGeometry relative="1" as="geometry" />
        </mxCell>
        <mxCell id="D-9IsX12bkMzrbKOuoSj-4" value="Esperando&amp;nbsp;&lt;div&gt;Seleccion&lt;/div&gt;&lt;div&gt;de Busqueda&lt;/div&gt;" style="rounded=1;whiteSpace=wrap;html=1;" vertex="1" parent="1">
          <mxGeometry x="165" y="140" width="120" height="60" as="geometry" />
        </mxCell>
        <mxCell id="D-9IsX12bkMzrbKOuoSj-28" style="rounded=0;orthogonalLoop=1;jettySize=auto;html=1;entryX=0.5;entryY=0;entryDx=0;entryDy=0;" edge="1" parent="1" source="D-9IsX12bkMzrbKOuoSj-5" target="D-9IsX12bkMzrbKOuoSj-26">
          <mxGeometry relative="1" as="geometry" />
        </mxCell>
        <mxCell id="D-9IsX12bkMzrbKOuoSj-5" value="Esperando&lt;div&gt;Seleccion&lt;/div&gt;&lt;div&gt;de Destino&lt;/div&gt;" style="whiteSpace=wrap;html=1;rounded=1;" vertex="1" parent="1">
          <mxGeometry x="450" y="140" width="120" height="60" as="geometry" />
        </mxCell>
        <mxCell id="D-9IsX12bkMzrbKOuoSj-7" value="&lt;h5 style=&quot;font-size: 8px;&quot;&gt;&lt;span style=&quot;font-weight: normal;&quot;&gt;Se selecciona&amp;nbsp;&lt;br&gt;&quot;Ultimos Encontrados&quot;&lt;br&gt;//Listar Ultimos 5 Lugares Buscados&lt;/span&gt;&lt;/h5&gt;" style="text;html=1;align=left;verticalAlign=middle;resizable=0;points=[];autosize=1;strokeColor=none;fillColor=none;" vertex="1" parent="1">
          <mxGeometry x="285" y="120" width="150" height="70" as="geometry" />
        </mxCell>
        <mxCell id="D-9IsX12bkMzrbKOuoSj-14" value="" style="edgeStyle=orthogonalEdgeStyle;rounded=0;orthogonalLoop=1;jettySize=auto;html=1;" edge="1" parent="1" source="D-9IsX12bkMzrbKOuoSj-8" target="D-9IsX12bkMzrbKOuoSj-13">
          <mxGeometry relative="1" as="geometry" />
        </mxCell>
        <mxCell id="D-9IsX12bkMzrbKOuoSj-8" value="Ingresando&lt;div&gt;Calle&lt;/div&gt;" style="whiteSpace=wrap;html=1;rounded=1;" vertex="1" parent="1">
          <mxGeometry x="165" y="280" width="120" height="60" as="geometry" />
        </mxCell>
        <mxCell id="D-9IsX12bkMzrbKOuoSj-10" value="&lt;h5 style=&quot;font-size: 8px;&quot;&gt;&lt;span style=&quot;font-weight: normal;&quot;&gt;&lt;font face=&quot;Helvetica&quot;&gt;Se selecciona&amp;nbsp;&lt;br&gt;&lt;/font&gt;&lt;font face=&quot;OF7fS-Q_mYJsFw1Ws7B4&quot;&gt;&quot;Nuevo Destino&quot;&lt;br&gt;&lt;/font&gt;&lt;font face=&quot;OF7fS-Q_mYJsFw1Ws7B4&quot;&gt;//Visualizar Campo Calle, Habilitar Teclado&lt;br&gt;&lt;/font&gt;&lt;font face=&quot;OF7fS-Q_mYJsFw1Ws7B4&quot;&gt;Habilitar Boton Siguiente&lt;/font&gt;&lt;/span&gt;&lt;/h5&gt;" style="text;html=1;align=left;verticalAlign=middle;resizable=0;points=[];autosize=1;strokeColor=none;fillColor=none;" vertex="1" parent="1">
          <mxGeometry x="230" y="190" width="160" height="80" as="geometry" />
        </mxCell>
        <mxCell id="D-9IsX12bkMzrbKOuoSj-20" style="edgeStyle=orthogonalEdgeStyle;rounded=0;orthogonalLoop=1;jettySize=auto;html=1;curved=1;" edge="1" parent="1" source="D-9IsX12bkMzrbKOuoSj-13">
          <mxGeometry relative="1" as="geometry">
            <mxPoint x="290" y="430" as="targetPoint" />
          </mxGeometry>
        </mxCell>
        <mxCell id="D-9IsX12bkMzrbKOuoSj-22" value="" style="edgeStyle=orthogonalEdgeStyle;rounded=0;orthogonalLoop=1;jettySize=auto;html=1;" edge="1" parent="1" source="D-9IsX12bkMzrbKOuoSj-13" target="D-9IsX12bkMzrbKOuoSj-21">
          <mxGeometry relative="1" as="geometry" />
        </mxCell>
        <mxCell id="D-9IsX12bkMzrbKOuoSj-13" value="Ingresando&amp;nbsp;&lt;div&gt;Altura&lt;/div&gt;" style="whiteSpace=wrap;html=1;rounded=1;" vertex="1" parent="1">
          <mxGeometry x="165" y="420" width="120" height="60" as="geometry" />
        </mxCell>
        <mxCell id="D-9IsX12bkMzrbKOuoSj-15" value="&lt;h5 style=&quot;font-size: 7px;&quot;&gt;Se apreto el Boton Siguiente&lt;br&gt;[Se ingresaron Caracteres]&lt;br&gt;//Deshabilitar Campo Calle,&lt;br&gt;Habilitar Campo Altura&lt;br&gt;&lt;/h5&gt;" style="text;html=1;align=left;verticalAlign=middle;resizable=0;points=[];autosize=1;strokeColor=none;fillColor=none;" vertex="1" parent="1">
          <mxGeometry x="230" y="340" width="120" height="70" as="geometry" />
        </mxCell>
        <mxCell id="D-9IsX12bkMzrbKOuoSj-19" value="&lt;h5 style=&quot;font-size: 7px;&quot;&gt;&lt;span style=&quot;font-weight: normal;&quot;&gt;Se apreto el boton siguiente&lt;br&gt;[Se ingesaron Caracts]&lt;br&gt;//Habilitar Boton Confirmar&lt;/span&gt;&lt;/h5&gt;" style="text;html=1;align=left;verticalAlign=middle;resizable=0;points=[];autosize=1;strokeColor=none;fillColor=none;" vertex="1" parent="1">
          <mxGeometry x="310" y="400" width="110" height="60" as="geometry" />
        </mxCell>
        <mxCell id="D-9IsX12bkMzrbKOuoSj-24" style="edgeStyle=orthogonalEdgeStyle;rounded=1;orthogonalLoop=1;jettySize=auto;html=1;entryX=0;entryY=0.5;entryDx=0;entryDy=0;curved=0;" edge="1" parent="1" source="D-9IsX12bkMzrbKOuoSj-21" target="D-9IsX12bkMzrbKOuoSj-4">
          <mxGeometry relative="1" as="geometry">
            <Array as="points">
              <mxPoint x="145" y="565" />
              <mxPoint x="145" y="170" />
            </Array>
          </mxGeometry>
        </mxCell>
        <mxCell id="D-9IsX12bkMzrbKOuoSj-27" style="rounded=0;orthogonalLoop=1;jettySize=auto;html=1;entryX=0.049;entryY=1.015;entryDx=0;entryDy=0;entryPerimeter=0;" edge="1" parent="1" target="D-9IsX12bkMzrbKOuoSj-26">
          <mxGeometry relative="1" as="geometry">
            <mxPoint x="285.00068965517255" y="557.4999999999999" as="sourcePoint" />
            <mxPoint x="471.38" y="442.5" as="targetPoint" />
          </mxGeometry>
        </mxCell>
        <mxCell id="D-9IsX12bkMzrbKOuoSj-21" value="Buscando&lt;div&gt;Direccion&lt;/div&gt;" style="whiteSpace=wrap;html=1;rounded=1;" vertex="1" parent="1">
          <mxGeometry x="165" y="535" width="120" height="60" as="geometry" />
        </mxCell>
        <mxCell id="D-9IsX12bkMzrbKOuoSj-23" value="&lt;h5 style=&quot;font-size: 7px;&quot;&gt;&lt;span style=&quot;font-weight: normal;&quot;&gt;Se apreto el boton Confirmar&lt;br&gt;[Se Apreto el boton Siguiente]&lt;br&gt;// Buscar Direccion&lt;/span&gt;&lt;/h5&gt;" style="text;html=1;align=left;verticalAlign=middle;resizable=0;points=[];autosize=1;strokeColor=none;fillColor=none;" vertex="1" parent="1">
          <mxGeometry x="235" y="470" width="120" height="60" as="geometry" />
        </mxCell>
        <mxCell id="D-9IsX12bkMzrbKOuoSj-25" value="&lt;h5 style=&quot;font-size: 8px;&quot;&gt;&lt;span style=&quot;font-weight: normal;&quot;&gt;Se busco la direccion&lt;br&gt;[La direc es Inexistente]&lt;br&gt;//Deshabilitar Botones y Campos,&lt;br&gt;Habilitar Opciones de Busqueda&lt;/span&gt;&lt;/h5&gt;" style="text;html=1;align=right;verticalAlign=middle;resizable=0;points=[];autosize=1;strokeColor=none;fillColor=none;" vertex="1" parent="1">
          <mxGeometry y="500" width="140" height="80" as="geometry" />
        </mxCell>
        <mxCell id="D-9IsX12bkMzrbKOuoSj-31" style="rounded=0;orthogonalLoop=1;jettySize=auto;html=1;exitX=0.167;exitY=0;exitDx=0;exitDy=0;exitPerimeter=0;edgeStyle=orthogonalEdgeStyle;curved=1;" edge="1" parent="1" source="D-9IsX12bkMzrbKOuoSj-26">
          <mxGeometry relative="1" as="geometry">
            <mxPoint x="285" y="180" as="targetPoint" />
            <Array as="points">
              <mxPoint x="480" y="210" />
              <mxPoint x="330" y="210" />
              <mxPoint x="330" y="180" />
            </Array>
          </mxGeometry>
        </mxCell>
        <mxCell id="D-9IsX12bkMzrbKOuoSj-34" style="rounded=0;orthogonalLoop=1;jettySize=auto;html=1;entryX=0.5;entryY=0;entryDx=0;entryDy=0;" edge="1" parent="1" source="D-9IsX12bkMzrbKOuoSj-26" target="D-9IsX12bkMzrbKOuoSj-33">
          <mxGeometry relative="1" as="geometry" />
        </mxCell>
        <mxCell id="D-9IsX12bkMzrbKOuoSj-26" value="Esperando&lt;div&gt;Confirmacion&lt;/div&gt;&lt;div&gt;de Ruta&lt;/div&gt;" style="rounded=1;whiteSpace=wrap;html=1;" vertex="1" parent="1">
          <mxGeometry x="460" y="320" width="120" height="60" as="geometry" />
        </mxCell>
        <mxCell id="D-9IsX12bkMzrbKOuoSj-29" value="&lt;h5 style=&quot;font-size: 8px;&quot;&gt;&lt;span style=&quot;font-weight: normal;&quot;&gt;Se busco la direccion&lt;br&gt;[La direc Existe]&lt;br&gt;//Deshabilitar Botones y Campos, Mostrar&lt;br&gt;Mapa de Ruta, Habilitar opciones ir y cancelar&lt;/span&gt;&lt;/h5&gt;" style="text;html=1;align=left;verticalAlign=middle;resizable=0;points=[];autosize=1;strokeColor=none;fillColor=none;" vertex="1" parent="1">
          <mxGeometry x="289" y="540" width="190" height="80" as="geometry" />
        </mxCell>
        <mxCell id="D-9IsX12bkMzrbKOuoSj-30" value="&lt;h5&gt;&lt;span style=&quot;font-weight: normal;&quot;&gt;Se selecciona un Destino&lt;br&gt;//Ocultar Listado, Mostrar Mapa&lt;br&gt;de Ruta, Habilitar Opciones Ir y Cancelar&lt;/span&gt;&lt;/h5&gt;" style="text;html=1;align=left;verticalAlign=middle;resizable=0;points=[];autosize=1;strokeColor=none;fillColor=none;" vertex="1" parent="1">
          <mxGeometry x="520" y="190" width="200" height="80" as="geometry" />
        </mxCell>
        <mxCell id="D-9IsX12bkMzrbKOuoSj-32" value="&lt;h5 style=&quot;font-size: 7px;&quot;&gt;&lt;span style=&quot;font-weight: normal;&quot;&gt;Se apreta &quot;Cancelar&quot;&lt;br&gt;//Ocultar Mapa, Deshabilitar Opciones,&lt;br&gt;Visualizar Pantalla Inicial de Busqueda,&lt;br&gt;Habilitar Opciones de Busqueda&lt;/span&gt;&lt;/h5&gt;" style="text;html=1;align=right;verticalAlign=middle;resizable=0;points=[];autosize=1;strokeColor=none;fillColor=none;" vertex="1" parent="1">
          <mxGeometry x="320" y="260" width="150" height="70" as="geometry" />
        </mxCell>
        <mxCell id="D-9IsX12bkMzrbKOuoSj-38" value="" style="edgeStyle=orthogonalEdgeStyle;rounded=0;orthogonalLoop=1;jettySize=auto;html=1;" edge="1" parent="1">
          <mxGeometry relative="1" as="geometry">
            <mxPoint x="599" y="489.9999999999999" as="sourcePoint" />
            <mxPoint x="679" y="489.9999999999999" as="targetPoint" />
          </mxGeometry>
        </mxCell>
        <mxCell id="D-9IsX12bkMzrbKOuoSj-50" value="" style="edgeStyle=orthogonalEdgeStyle;rounded=0;orthogonalLoop=1;jettySize=auto;html=1;" edge="1" parent="1" source="D-9IsX12bkMzrbKOuoSj-33" target="D-9IsX12bkMzrbKOuoSj-48">
          <mxGeometry relative="1" as="geometry" />
        </mxCell>
        <mxCell id="D-9IsX12bkMzrbKOuoSj-52" style="rounded=0;orthogonalLoop=1;jettySize=auto;html=1;entryX=1;entryY=0.5;entryDx=0;entryDy=0;" edge="1" parent="1" source="D-9IsX12bkMzrbKOuoSj-33" target="D-9IsX12bkMzrbKOuoSj-8">
          <mxGeometry relative="1" as="geometry" />
        </mxCell>
        <mxCell id="D-9IsX12bkMzrbKOuoSj-33" value="Navegando" style="rounded=1;whiteSpace=wrap;html=1;" vertex="1" parent="1">
          <mxGeometry x="479" y="480" width="120" height="60" as="geometry" />
        </mxCell>
        <mxCell id="D-9IsX12bkMzrbKOuoSj-35" value="&lt;h5 style=&quot;font-size: 7px;&quot;&gt;&lt;span style=&quot;font-weight: normal;&quot;&gt;Se apreta &quot;Ir&quot;&lt;br&gt;//Ocultar Mapa, Deshabilitar Botones, Habilitar Boton &quot;Detener&lt;br&gt;Navegacion&quot;Habilitar Timer, Habilitar Receptor de SeÃ±al,&lt;/span&gt;&lt;/h5&gt;" style="text;html=1;align=left;verticalAlign=middle;resizable=0;points=[];autosize=1;strokeColor=none;fillColor=none;" vertex="1" parent="1">
          <mxGeometry x="540" y="370" width="220" height="60" as="geometry" />
        </mxCell>
        <mxCell id="D-9IsX12bkMzrbKOuoSj-40" value="" style="edgeStyle=orthogonalEdgeStyle;rounded=0;orthogonalLoop=1;jettySize=auto;html=1;" edge="1" parent="1">
          <mxGeometry relative="1" as="geometry">
            <mxPoint x="679" y="519.9999999999999" as="sourcePoint" />
            <mxPoint x="599" y="519.9999999999999" as="targetPoint" />
          </mxGeometry>
        </mxCell>
        <mxCell id="D-9IsX12bkMzrbKOuoSj-42" style="edgeStyle=orthogonalEdgeStyle;rounded=0;orthogonalLoop=1;jettySize=auto;html=1;entryX=0.75;entryY=0;entryDx=0;entryDy=0;" edge="1" parent="1" source="D-9IsX12bkMzrbKOuoSj-37" target="D-9IsX12bkMzrbKOuoSj-4">
          <mxGeometry relative="1" as="geometry">
            <mxPoint x="738.9999999999998" y="110" as="targetPoint" />
            <Array as="points">
              <mxPoint x="760" y="120" />
              <mxPoint x="255" y="120" />
            </Array>
          </mxGeometry>
        </mxCell>
        <mxCell id="D-9IsX12bkMzrbKOuoSj-44" style="edgeStyle=orthogonalEdgeStyle;rounded=0;orthogonalLoop=1;jettySize=auto;html=1;entryX=0.683;entryY=1.032;entryDx=0;entryDy=0;entryPerimeter=0;curved=1;" edge="1" parent="1" source="D-9IsX12bkMzrbKOuoSj-37" target="D-9IsX12bkMzrbKOuoSj-37">
          <mxGeometry relative="1" as="geometry">
            <mxPoint x="760" y="549.9999999999999" as="targetPoint" />
            <Array as="points">
              <mxPoint x="739" y="570" />
              <mxPoint x="761" y="570" />
            </Array>
          </mxGeometry>
        </mxCell>
        <mxCell id="D-9IsX12bkMzrbKOuoSj-37" value="Esperando&lt;div&gt;SeÃ±al&lt;/div&gt;" style="whiteSpace=wrap;html=1;rounded=1;" vertex="1" parent="1">
          <mxGeometry x="679" y="480" width="120" height="60" as="geometry" />
        </mxCell>
        <mxCell id="D-9IsX12bkMzrbKOuoSj-39" value="&lt;h5 style=&quot;font-size: 7px;&quot;&gt;&lt;span style=&quot;font-weight: normal;&quot;&gt;Se pierde la seÃ±al&lt;br&gt;[SeÃ±al no Recibida]&lt;br&gt;//Pausar Navegacion,Habilitar Contador&lt;/span&gt;&lt;/h5&gt;" style="text;html=1;align=left;verticalAlign=middle;resizable=0;points=[];autosize=1;strokeColor=none;fillColor=none;" vertex="1" parent="1">
          <mxGeometry x="590" y="430" width="150" height="60" as="geometry" />
        </mxCell>
        <mxCell id="D-9IsX12bkMzrbKOuoSj-41" value="&lt;h5 style=&quot;font-size: 6px;&quot;&gt;&lt;span style=&quot;font-weight: normal;&quot;&gt;Se recibe SeÃ±al&lt;br&gt;[El Contador es mayor a&amp;nbsp;3 min]&lt;br&gt;//Continuar Navegacion&lt;/span&gt;&lt;/h5&gt;" style="text;html=1;align=right;verticalAlign=middle;resizable=0;points=[];autosize=1;strokeColor=none;fillColor=none;" vertex="1" parent="1">
          <mxGeometry x="590" y="520" width="110" height="60" as="geometry" />
        </mxCell>
        <mxCell id="D-9IsX12bkMzrbKOuoSj-43" value="&lt;h5 style=&quot;font-size: 7px;&quot;&gt;&lt;span style=&quot;font-weight: normal;&quot;&gt;&lt;font face=&quot;Helvetica&quot;&gt;Se pierde SeÃ±al&lt;br&gt;[Pasaron 3 min]&lt;br&gt;//Ocultar Mapa, Deshabilitar Opciones,&lt;br&gt;Visualizar Pantalla Inicial de Busqueda,&lt;br&gt;Habilitar Opciones de Busqueda&lt;/font&gt;&lt;/span&gt;&lt;/h5&gt;" style="text;html=1;align=right;verticalAlign=middle;resizable=0;points=[];autosize=1;strokeColor=none;fillColor=none;" vertex="1" parent="1">
          <mxGeometry x="610" y="270" width="150" height="80" as="geometry" />
        </mxCell>
        <mxCell id="D-9IsX12bkMzrbKOuoSj-45" value="&lt;h2 style=&quot;font-size: 6px;&quot;&gt;&lt;span style=&quot;font-weight: normal;&quot;&gt;Pasa un Segundo&lt;br&gt;[No se recibe seÃ±al]&lt;br&gt;//Incrementar Contador&lt;/span&gt;&lt;/h2&gt;" style="text;html=1;align=center;verticalAlign=middle;resizable=0;points=[];autosize=1;strokeColor=none;fillColor=none;" vertex="1" parent="1">
          <mxGeometry x="720" y="560" width="90" height="50" as="geometry" />
        </mxCell>
        <mxCell id="D-9IsX12bkMzrbKOuoSj-46" style="edgeStyle=orthogonalEdgeStyle;rounded=0;orthogonalLoop=1;jettySize=auto;html=1;entryX=0.683;entryY=1.032;entryDx=0;entryDy=0;entryPerimeter=0;curved=1;" edge="1" parent="1">
          <mxGeometry relative="1" as="geometry">
            <mxPoint x="571" y="542" as="targetPoint" />
            <mxPoint x="549" y="540" as="sourcePoint" />
            <Array as="points">
              <mxPoint x="549" y="570" />
              <mxPoint x="571" y="570" />
            </Array>
          </mxGeometry>
        </mxCell>
        <mxCell id="D-9IsX12bkMzrbKOuoSj-47" value="&lt;h3 style=&quot;font-size: 6px;&quot;&gt;&lt;span style=&quot;font-weight: normal;&quot;&gt;Pasa un Segundo&lt;br&gt;[Se recibe SeÃ±al]&lt;br&gt;//Actualizar Ubicacion, Velocidad,&lt;br&gt;tiempo restante, distancia&lt;/span&gt;&lt;/h3&gt;" style="text;html=1;align=center;verticalAlign=middle;resizable=0;points=[];autosize=1;strokeColor=none;fillColor=none;" vertex="1" parent="1">
          <mxGeometry x="510" y="560" width="110" height="50" as="geometry" />
        </mxCell>
        <mxCell id="D-9IsX12bkMzrbKOuoSj-48" value="" style="ellipse;shape=doubleEllipse;whiteSpace=wrap;html=1;aspect=fixed;" vertex="1" parent="1">
          <mxGeometry x="355" y="485" width="50" height="50" as="geometry" />
        </mxCell>
        <mxCell id="D-9IsX12bkMzrbKOuoSj-51" value="&lt;h5 style=&quot;font-size: 5px;&quot;&gt;&lt;span style=&quot;font-weight: normal;&quot;&gt;Se llega al destino&lt;br&gt;[Tiempo Restante igual a 0]&lt;br&gt;//Mostrar Mensaje de Destino&amp;nbsp;&lt;br&gt;Alcanzado&lt;/span&gt;&lt;/h5&gt;" style="text;html=1;align=center;verticalAlign=middle;resizable=0;points=[];autosize=1;strokeColor=none;fillColor=none;" vertex="1" parent="1">
          <mxGeometry x="400" y="470" width="90" height="50" as="geometry" />
        </mxCell>
        <mxCell id="D-9IsX12bkMzrbKOuoSj-53" value="&lt;h5 style=&quot;font-size: 5px;&quot;&gt;&lt;span style=&quot;font-weight: normal;&quot;&gt;&lt;font style=&quot;font-size: 5px;&quot; face=&quot;Helvetica&quot;&gt;Se apreto&amp;nbsp;&lt;br&gt;&lt;/font&gt;&lt;/span&gt;&lt;span style=&quot;font-weight: normal;&quot;&gt;&lt;font style=&quot;font-size: 5px;&quot; face=&quot;OF7fS-Q_mYJsFw1Ws7B4&quot;&gt;&quot;Detener Navegacion&quot;&lt;br&gt;&lt;/font&gt;&lt;/span&gt;&lt;span style=&quot;font-weight: normal;&quot;&gt;&lt;font style=&quot;font-size: 5px;&quot; face=&quot;OF7fS-Q_mYJsFw1Ws7B4&quot;&gt;//,Detener Navegacion, Visualizar Campo Calle,&amp;nbsp;&lt;br&gt;&lt;/font&gt;&lt;/span&gt;&lt;span style=&quot;font-weight: normal;&quot;&gt;&lt;font style=&quot;font-size: 5px;&quot; face=&quot;OF7fS-Q_mYJsFw1Ws7B4&quot;&gt;Habilitar Teclado,&amp;nbsp;&lt;/font&gt;&lt;font style=&quot;font-size: 5px;&quot; face=&quot;OF7fS-Q_mYJsFw1Ws7B4&quot;&gt;Habilitar Boton Siguiente&lt;/font&gt;&lt;/span&gt;&lt;/h5&gt;" style="text;html=1;align=left;verticalAlign=middle;resizable=0;points=[];autosize=1;strokeColor=none;fillColor=none;" vertex="1" parent="1">
          <mxGeometry x="340" y="315" width="120" height="60" as="geometry" />
        </mxCell>
      </root>
    </mxGraphModel>
  </diagram>
</mxfile>
